<?xml version="1.0" standalone="no"?><!DOCTYPE svg PUBLIC "-//W3C//DTD SVG 1.1//EN" "http://www.w3.org/Graphics/SVG/1.1/DTD/svg11.dtd"><svg t="1757572237778" class="icon" viewBox="0 0 1024 1024" version="1.1" xmlns="http://www.w3.org/2000/svg" p-id="9904" xmlns:xlink="http://www.w3.org/1999/xlink" width="64" height="64"><path d="M438.091776 949.76c-24.064 0-46.592-11.776-61.44-32.768l-23.04-34.304c-4.608-6.656-12.288-10.752-20.48-10.752s-15.36 4.096-20.48 10.752l-23.04 33.28c-20.992 30.208-57.344 40.448-91.136 27.136-33.792-13.824-52.224-47.616-46.08-83.456l6.656-39.936c1.536-8.704-1.024-16.896-7.168-23.04-5.632-5.632-13.824-8.192-21.504-6.656l-40.448 7.168c-36.352 6.144-69.632-12.288-83.968-45.568-13.824-33.792-3.072-70.656 26.624-91.648l34.304-23.552c6.656-4.608 10.752-11.776 10.752-19.968s-4.096-15.872-10.752-20.992L33.099776 573.44c-30.208-20.992-40.96-57.344-26.624-91.136 13.824-33.792 47.616-52.224 83.456-46.08l39.936 7.168c8.192 1.536 16.384-1.024 22.528-7.168 5.632-5.632 8.192-13.824 6.656-21.504v-0.512L152.395776 373.76c-6.144-35.84 12.288-69.632 46.08-83.968 33.792-13.824 70.144-3.072 91.136 26.112l23.552 34.304c4.608 6.656 12.288 10.752 20.48 10.752s15.36-4.096 20.48-10.752l23.04-33.792c21.504-29.696 58.368-39.936 92.16-25.6 33.28 14.336 51.2 47.616 44.544 83.456L507.211776 413.696c-1.536 8.704 1.024 16.896 7.168 23.04 5.632 5.632 13.824 8.192 21.504 6.656l40.448-7.168c36.352-6.144 69.632 12.288 83.968 45.568 13.824 33.792 3.072 70.656-26.624 91.648l-34.304 23.552c-6.656 4.608-10.752 11.776-10.752 19.968s4.096 15.872 10.752 20.992l33.792 23.04c30.208 20.992 41.472 57.856 27.136 92.16-14.336 33.792-48.128 52.224-84.992 45.056l-39.936-7.168c-8.192-1.536-16.384 1.024-22.528 7.168-5.632 5.632-8.192 13.824-6.656 21.504v0.512l6.656 39.936c6.656 35.84-11.776 69.632-45.568 83.456-9.216 4.096-19.456 6.144-29.184 6.144z m-105.472-129.024c24.576 0 48.128 12.288 62.464 32.768l23.04 34.304c10.752 15.36 25.6 10.24 29.696 8.704 4.096-1.536 17.92-9.216 14.848-27.648l-6.656-39.936c-4.608-24.064 3.072-49.152 20.48-67.072 17.92-17.92 43.008-26.112 68.096-21.504l39.936 7.168c18.944 3.584 26.624-10.24 28.16-14.848 2.048-4.096 6.656-19.456-8.704-30.208l-33.792-23.04c-20.992-14.848-33.28-38.4-33.28-63.488 0-24.576 12.288-48.128 33.28-61.952l33.792-23.04c11.776-8.192 12.288-20.992 8.704-29.696-1.536-4.096-9.216-17.92-27.648-14.848l-39.936 7.168c-24.064 4.608-49.152-3.072-67.072-20.48-17.92-17.92-26.112-43.008-21.504-68.096l6.656-40.448c3.584-17.92-10.24-25.088-14.336-27.136-9.216-4.096-21.504-3.584-30.208 8.192L395.595776 378.88c-14.848 20.992-37.888 33.28-62.464 33.28s-48.128-12.288-62.464-32.768l-23.04-34.304c-10.24-14.848-25.088-10.24-29.696-8.192-4.608 2.048-18.432 9.216-15.36 28.16l6.656 39.936c4.608 24.064-3.072 49.152-20.48 67.072-17.92 17.92-43.008 26.112-68.096 21.504L80.715776 486.4c-17.92-3.072-25.6 10.752-27.136 15.36-1.536 4.096-6.656 19.456 8.704 29.696l33.792 23.04c20.992 14.848 33.28 38.4 33.28 63.488 0 24.576-12.288 48.128-33.28 61.952l-33.792 23.04c-11.776 8.192-12.288 20.992-8.704 29.696 1.536 4.096 9.216 17.92 27.648 14.848l39.936-7.168c24.064-4.608 49.152 3.072 67.072 20.48 17.92 17.92 26.112 43.008 21.504 68.096l-6.656 39.936c-3.072 18.432 10.752 25.6 14.848 27.648 4.096 1.536 18.944 6.144 29.184-8.704l23.04-33.792c14.336-20.992 37.888-33.28 62.464-33.28z m1.024-35.328c-92.672 0-167.936-75.264-167.936-167.936S240.971776 449.536 333.643776 449.536s167.936 75.264 167.936 167.936-75.264 167.936-167.936 167.936z m0-284.672c-64.512 0-116.736 52.224-116.736 116.736s52.224 116.736 116.736 116.736c64.512 0 116.736-52.224 116.736-116.736S398.155776 500.736 333.643776 500.736z" fill="#FFFFFF" p-id="9905"></path><path d="M863.563776 530.432c-16.896 0-33.28-8.192-44.032-23.552l-15.36-22.528c-3.584-5.12-8.192-5.632-10.752-5.632s-7.168 1.024-10.752 6.144l-15.36 22.016c-14.848 21.504-40.448 29.184-64.512 19.456-24.064-9.728-37.376-33.792-32.768-59.392l4.608-26.624c1.024-6.144-2.048-10.24-3.584-11.776-1.536-1.536-5.632-4.608-11.776-3.584l-26.624 4.608c-25.6 4.608-49.664-8.704-59.392-32.768-9.728-24.064-2.048-50.176 19.456-65.024l22.528-15.36c4.608-3.072 5.632-8.192 5.632-10.24 0-4.608-2.048-8.704-6.144-11.264l-22.528-15.36c-20.992-15.36-28.672-41.472-18.432-65.536 9.728-23.552 33.792-36.864 58.88-32.256l26.624 4.608c6.144 1.024 10.24-2.048 11.776-3.584 1.536-1.536 4.608-5.632 3.584-11.776l-4.608-26.624c-4.608-25.6 8.704-49.664 32.768-59.392 24.064-9.728 50.176-2.56 65.024 18.944l15.36 22.528c3.584 5.12 8.192 5.632 10.752 5.632s7.168-1.024 10.752-6.144l15.36-22.528c15.36-20.992 41.472-28.672 65.536-18.432 23.552 10.24 36.352 34.304 31.744 59.904l-4.608 26.624c-1.024 6.144 2.048 10.24 3.584 11.776 1.536 1.536 5.632 4.608 11.776 3.584l26.624-4.608c25.6-4.608 49.664 8.704 59.392 32.768 9.728 24.064 2.048 50.176-19.456 65.024l-22.528 15.36c-5.12 3.072-5.632 8.192-5.632 10.24 0 4.608 2.048 8.704 6.144 11.264l22.528 15.36c21.504 14.848 29.696 41.472 19.456 65.536-10.24 24.064-34.304 37.376-60.416 32.256l-26.624-4.608c-6.144-1.024-10.24 2.048-11.776 3.584-1.536 1.536-4.608 5.632-3.584 11.776l4.608 26.624c4.608 25.6-8.192 49.664-32.256 59.392-6.656 2.048-13.824 3.584-20.992 3.584z m-70.144-92.672c17.92 0 33.792 8.704 44.544 23.04l15.36 23.04c5.632 8.192 13.312 5.632 15.872 4.608 3.072-1.024 9.216-5.12 7.68-14.336l-4.608-26.624c-3.072-17.408 2.56-35.328 14.848-48.128s30.208-18.432 48.128-15.36l26.624 4.608c10.24 2.048 14.336-5.12 15.36-7.68 1.024-3.072 3.072-10.24-5.12-15.872l-22.528-15.36c-14.848-10.752-23.552-27.648-23.552-45.056 0-17.408 8.704-33.792 23.552-44.032l22.528-15.36c7.68-5.12 5.632-12.8 4.608-15.872-1.024-3.072-5.12-9.728-14.848-8.192l-26.624 4.608c-17.408 3.072-35.328-2.56-48.128-14.848s-18.432-30.72-15.36-48.128l4.608-26.624c2.048-9.728-4.608-13.312-7.68-14.848-2.048-1.024-10.24-3.584-15.872 4.608l-15.36 22.528c-10.752 14.848-26.624 23.552-44.544 23.552s-33.792-8.704-44.544-23.04l-15.36-23.04c-5.632-7.68-13.312-5.12-15.872-4.096-3.072 1.024-9.728 5.12-8.192 14.848l4.608 26.624c3.072 17.408-2.56 35.328-14.848 48.128s-30.208 18.432-48.128 15.36l-26.624-4.608c-9.216-1.536-12.8 5.12-14.336 7.68-1.024 2.56-3.584 10.24 4.608 16.384l22.528 15.36c14.848 10.752 23.552 27.648 23.552 45.056 0 17.408-8.704 33.792-23.552 44.032l-22.528 15.36c-7.68 5.12-5.632 12.8-4.608 15.872 1.024 3.072 5.12 9.728 14.848 8.192l26.624-4.608c17.408-3.072 35.328 2.56 48.128 14.848s18.432 30.72 15.36 48.128l-4.608 26.624c-1.536 9.728 5.632 13.824 8.192 14.848 3.072 1.024 10.24 3.072 15.36-4.608l15.36-22.528c10.752-16.896 26.624-25.088 44.544-25.088z m0.512-17.408c-63.488 0-115.2-51.712-115.2-115.2 0-64 51.712-115.712 115.2-115.712s115.2 51.712 115.2 115.2c0 64-51.712 115.712-115.2 115.712z m0-189.952c-40.96 0-74.24 33.28-74.24 74.752 0 40.96 33.28 74.24 74.24 74.24s74.24-33.28 74.24-74.752c0-40.96-33.28-74.24-74.24-74.24z" fill="#FFFFFF" p-id="9906"></path></svg>