<?xml version="1.0" standalone="no"?><!DOCTYPE svg PUBLIC "-//W3C//DTD SVG 1.1//EN" "http://www.w3.org/Graphics/SVG/1.1/DTD/svg11.dtd"><svg t="1753081035304" class="icon" viewBox="0 0 1024 1024" version="1.1" xmlns="http://www.w3.org/2000/svg" p-id="7389" xmlns:xlink="http://www.w3.org/1999/xlink" width="200" height="200"><path d="M96 688a32 32 0 0 1 32 32V896h176a32 32 0 0 1 31.701333 27.648l0.298667 4.352a32 32 0 0 1-32 32H96a32 32 0 0 1-32-32v-208a32 32 0 0 1 32-32zM447.872 253.866667c8.106667 0 15.573333 2.389333 22.357333 7.125333a33.92 33.92 0 0 1 13.525334 19.285333L631.466667 736.938667c3.157333 9.514667 2.56 17.28-1.706667 23.381333-4.266667 6.101333-11.605333 9.130667-22.016 9.130667h-6.101333a36.864 36.864 0 0 1-23.04-7.765334 37.12 37.12 0 0 1-13.525334-19.328l-31.872-105.002666h-200.533333l-31.829333 105.002666a37.12 37.12 0 0 1-13.568 19.328 36.864 36.864 0 0 1-23.04 7.765334h-4.693334c-9.984 0-17.066667-2.901333-21.376-8.789334-4.266667-5.888-4.650667-13.312-1.024-22.357333L384.853333 280.277333a33.92 33.92 0 0 1 13.525334-19.285333 38.144 38.144 0 0 1 22.357333-7.125333h27.136z m-14.933333 54.186666l-84.010667 275.754667h168.021333L432.938667 308.053333zM304 64a32 32 0 0 1 0 64H128v176a32 32 0 0 1-27.648 31.701333l-4.352 0.298667a32 32 0 0 1-32-32V96a32 32 0 0 1 32-32h208zM928 688a32 32 0 0 1 32 32v208a32 32 0 0 1-32 32h-208a32 32 0 1 1 0-64H896v-176a32 32 0 0 1 27.648-31.701333l4.352-0.298667zM757.504 253.866667c9.002667 0 16.597333 3.029333 22.698667 9.130666 6.101333 6.101333 9.130667 13.653333 9.130666 22.698667v451.925333c0 9.045333-3.029333 16.64-9.130666 22.698667a30.805333 30.805333 0 0 1-22.698667 9.130667c-9.941333 0-17.877333-3.029333-23.722667-9.130667a32.298667 32.298667 0 0 1-8.832-23.381333V285.696c0-9.002667 2.986667-16.597333 8.832-22.698667 5.845333-6.101333 13.781333-9.130667 23.722667-9.130666zM928 64a32 32 0 0 1 32 32v208a32 32 0 1 1-64 0V128h-176a32 32 0 0 1-31.701333-27.648l-0.298667-4.352a32 32 0 0 1 32-32h208z" p-id="7390"></path></svg>