<?xml version="1.0" standalone="no"?><!DOCTYPE svg PUBLIC "-//W3C//DTD SVG 1.1//EN" "http://www.w3.org/Graphics/SVG/1.1/DTD/svg11.dtd"><svg t="1753080950040" class="icon" viewBox="0 0 1024 1024" version="1.1" xmlns="http://www.w3.org/2000/svg" p-id="6379" xmlns:xlink="http://www.w3.org/1999/xlink" width="200" height="200"><path d="M512 805.888C350.72 805.888 218.112 673.28 218.112 512S350.72 218.112 512 218.112 805.888 350.72 805.888 512 673.28 805.888 512 805.888z m0-521.472c-126.464 0-230.656 104.192-230.656 230.656s104.192 230.656 230.656 230.656 230.656-104.192 230.656-230.656-104.192-230.656-230.656-230.656z" fill="#FFFFFF" p-id="6380"></path><path d="M512 265.472c-18.944 0-31.488-12.544-31.488-31.488V123.136c0-18.944 12.544-31.488 31.488-31.488s31.488 12.544 31.488 31.488v110.592c0 18.944-12.544 31.744-31.488 31.744z m-196.096 82.176c-9.472 0-15.872-3.072-22.016-9.472l-79.104-79.104c-12.544-12.544-12.544-31.488 0-44.288 12.544-12.544 31.488-12.544 44.288 0l79.104 79.104c12.544 12.544 12.544 31.488 0 44.288-6.4 6.4-15.872 9.472-22.272 9.472z m-82.176 195.84H123.136c-18.944 0-31.488-12.544-31.488-31.488s12.544-31.488 31.488-31.488h110.592c18.944 0 31.488 12.544 31.488 31.488s-15.616 31.488-31.488 31.488z m3.328 275.2c-9.472 0-15.872-3.072-22.016-9.472-12.544-12.544-12.544-31.488 0-44.288l79.104-79.104c12.544-12.544 31.488-12.544 44.288 0 12.544 12.544 12.544 31.488 0 44.288l-79.104 79.104c-6.656 6.144-12.8 9.472-22.272 9.472zM512 932.352c-18.944 0-31.488-12.544-31.488-31.488v-110.592c0-18.944 12.544-31.488 31.488-31.488s31.488 12.544 31.488 31.488v110.592c0 18.944-12.544 31.488-31.488 31.488z m274.944-113.664c-9.472 0-15.872-3.072-22.016-9.472l-79.104-79.104c-12.544-12.544-12.544-31.488 0-44.288 12.544-12.544 31.488-12.544 44.288 0l79.104 79.104c12.544 12.544 12.544 31.488 0 44.288-6.4 6.144-12.8 9.472-22.272 9.472z m113.92-275.2h-110.592c-18.944 0-31.488-12.544-31.488-31.488s12.544-31.488 31.488-31.488h110.592c18.944 0 31.488 12.544 31.488 31.488s-12.544 31.488-31.488 31.488z m-192.768-195.84c-9.472 0-15.872-3.072-22.016-9.472-12.544-12.544-12.544-31.488 0-44.288l79.104-79.104c12.544-12.544 31.488-12.544 44.288 0 12.544 12.544 12.544 31.488 0 44.288l-79.104 79.104c-6.656 6.4-12.8 9.472-22.272 9.472z m-211.968-12.544c-91.648 6.4-167.424 85.248-167.424 180.224s72.704 170.752 167.424 180.224V335.104z" fill="#FFFFFF" p-id="6381"></path></svg>