<?xml version="1.0" standalone="no"?><!DOCTYPE svg PUBLIC "-//W3C//DTD SVG 1.1//EN" "http://www.w3.org/Graphics/SVG/1.1/DTD/svg11.dtd"><svg t="1753081998588" class="icon" viewBox="0 0 1024 1024" version="1.1" xmlns="http://www.w3.org/2000/svg" p-id="9294" xmlns:xlink="http://www.w3.org/1999/xlink" width="200" height="200"><path d="M280.405333 298.666667l33.194667-128h229.418667l33.194666 128H725.333333v129.024a217.898667 217.898667 0 0 1 42.666667 0V298.666667a42.666667 42.666667 0 0 0-42.666667-42.666667h-116.096l-24.96-96.042667A42.666667 42.666667 0 0 0 542.976 128H313.6a42.666667 42.666667 0 0 0-41.258667 31.957333L247.381333 256H203.648v-26.197333a16.469333 16.469333 0 0 0-32.981333 0V256H128a42.666667 42.666667 0 0 0-42.666667 42.666667v384a42.666667 42.666667 0 0 0 42.666667 42.666666h387.242667A280.704 280.704 0 0 1 512 682.666667H128V298.666667h152.405333z" fill="#3B3B3B" p-id="9295"></path><path d="M682.666667 374.314667a32.981333 32.981333 0 1 1-65.92 0 32.981333 32.981333 0 0 1 65.92 0zM554.666667 469.333333a128 128 0 1 1-256 0 128 128 0 0 1 256 0z m-42.666667 0a85.333333 85.333333 0 1 0-170.666667 0 85.333333 85.333333 0 0 0 170.666667 0zM684.586667 783.36c49.066667 28.714667 112.725333 13.568 141.354666-36.821333 28.586667-50.346667 9.770667-113.749333-39.253333-142.506667-49.024-28.714667-112.64-13.568-141.312 36.821333-28.586667 50.346667-9.770667 113.749333 39.253333 142.506667z m21.162666-37.12c-29.525333-17.28-40.064-54.826667-23.552-83.882667 16.512-29.013333 53.845333-38.570667 83.370667-21.248 29.525333 17.28 40.064 54.869333 23.552 83.925334-16.512 29.013333-53.845333 38.528-83.370667 21.248z" fill="#3B3B3B" p-id="9296"></path><path d="M642.261333 543.744l-66.261333-1.834667a236.032 236.032 0 0 0-46.805333 82.432l34.602666 57.301334c4.437333 7.296 4.266667 16.682667-0.298666 24.106666l-36.266667 58.325334a223.914667 223.914667 0 0 0 44.629333 81.109333l66.304-3.669333a21.077333 21.077333 0 0 1 20.096 11.818666l29.994667 60.074667a212.906667 212.906667 0 0 0 91.477333-1.194667l31.658667-61.013333a22.528 22.528 0 0 1 20.437333-12.373333l66.261334 1.834666a236.16 236.16 0 0 0 46.805333-82.346666l-34.602667-57.344a23.210667 23.210667 0 0 1 0.341334-24.149334l36.224-58.325333a223.914667 223.914667 0 0 0-44.629334-81.066667l-66.304 3.669334a21.12 21.12 0 0 1-20.053333-11.818667l-29.994667-60.117333a212.864 212.864 0 0 0-91.477333 1.194666l-31.701333 61.013334a22.528 22.528 0 0 1-20.437334 12.373333z m135.68 4.693333c11.434667 22.912 35.157333 36.864 60.586667 35.456l44.117333-2.432a179.84 179.84 0 0 1 17.237334 31.744l-25.258667 40.704c-12.8 20.608-13.653333 47.488-0.554667 69.248l23.722667 39.253334c-5.333333 12.202667-11.946667 23.893333-19.754667 34.816l-45.312-1.237334a64.597333 64.597333 0 0 0-58.965333 35.114667l-22.058667 42.581333c-11.946667 1.450667-23.850667 1.621333-35.541333 0.597334l-20.010667-40.106667a63.786667 63.786667 0 0 0-60.544-35.456l-44.16 2.432a179.498667 179.498667 0 0 1-17.237333-31.744l25.258667-40.704c12.8-20.650667 13.653333-47.488 0.554666-69.248l-23.722666-39.253333c5.376-12.245333 11.946667-23.893333 19.754666-34.816l45.312 1.237333a64.597333 64.597333 0 0 0 58.965334-35.157333l22.101333-42.538667c11.904-1.450667 23.808-1.621333 35.541333-0.597333l19.968 40.106666z" fill="#3B3B3B" p-id="9297"></path></svg>