<?xml version="1.0" standalone="no"?><!DOCTYPE svg PUBLIC "-//W3C//DTD SVG 1.1//EN" "http://www.w3.org/Graphics/SVG/1.1/DTD/svg11.dtd"><svg t="1757572180884" class="icon" viewBox="0 0 1024 1024" version="1.1" xmlns="http://www.w3.org/2000/svg" p-id="8921" xmlns:xlink="http://www.w3.org/1999/xlink" width="64" height="64"><path d="M109.44 323.84v-70.4h677.12v70.4H109.44zM542.784 768v70.336h243.712V768H542.848z m0-256v70.336h243.712V512H542.848zM497.92 639.424c1.024 1.536 2.048 3.008 3.136 4.416a35.008 35.008 0 0 1-1.152 28.672 44.288 44.288 0 0 0-1.92 2.88l-1.28 2.176a20.864 20.864 0 0 1-3.136 4.736l-122.624 122.56a35.072 35.072 0 0 1-49.664-49.664l62.528-62.592H200.96a130.56 130.56 0 1 0 0 261.12h216.256V1024h-216.32A201.152 201.152 0 0 1 0 823.104a201.152 201.152 0 0 1 200.896-200.832h182.912l-62.592-62.656a35.2 35.2 0 0 1 24.832-59.904h0.064c9.344 0 18.24 3.648 24.832 10.24l122.624 122.688c1.216 1.28 2.24 2.88 3.072 4.48l1.28 2.304zM62.72 0h835.84c34.56 0 62.72 28.16 62.72 62.72v898.56c0 34.56-28.16 62.72-62.72 62.72H585.216a41.92 41.92 0 0 1-41.792-41.792c0-23.04 18.816-41.792 41.792-41.792h292.544V83.584H83.584v355.264c0 23.04-18.816 41.792-41.792 41.792A41.92 41.92 0 0 1 0 438.848V62.72C0 28.16 27.712 0 62.72 0z" fill="#FFFFFF" p-id="8922"></path></svg>