<?xml version="1.0" standalone="no"?><!DOCTYPE svg PUBLIC "-//W3C//DTD SVG 1.1//EN" "http://www.w3.org/Graphics/SVG/1.1/DTD/svg11.dtd"><svg t="1753080824701" class="icon" viewBox="0 0 1024 1024" version="1.1" xmlns="http://www.w3.org/2000/svg" p-id="4492" xmlns:xlink="http://www.w3.org/1999/xlink" width="200" height="200"><path d="M511.701333 614.698667l-66.218666 66.218666a170.666667 170.666667 0 1 1-60.501334-60.16l66.346667-66.389333-133.290667-133.333333a64 64 0 0 1 0-90.496l15.104-15.104 178.56 178.56 178.730667-178.730667 15.061333 15.104a64 64 0 0 1 0 90.453333l-133.461333 133.546667 66.602667 66.56a170.666667 170.666667 0 1 1-60.330667 60.330667l-66.602667-66.56zM810.666667 554.666667V213.333333H213.333333v341.333334H128V170.666667a42.666667 42.666667 0 0 1 42.666667-42.666667h682.666666a42.666667 42.666667 0 0 1 42.666667 42.666667v384h-85.333333zM298.666667 853.333333a85.333333 85.333333 0 1 0 0-170.666666 85.333333 85.333333 0 0 0 0 170.666666z m426.666666 0a85.333333 85.333333 0 1 0 0-170.666666 85.333333 85.333333 0 0 0 0 170.666666z" fill="#000000" p-id="4493"></path></svg>