<?xml version="1.0" standalone="no"?>
<!DOCTYPE svg PUBLIC "-//W3C//DTD SVG 1.1//EN" "http://www.w3.org/Graphics/SVG/1.1/DTD/svg11.dtd">
<svg t="1760432887055" class="icon" viewBox="0 0 1170 1024" version="1.1" xmlns="http://www.w3.org/2000/svg" p-id="7312" xmlns:xlink="http://www.w3.org/1999/xlink">
  <path fill="#FFFFFF" d="M593.0926 0a511.996709 511.996709 0 1 1-243.92986 962.261243l-0.511997-0.29257a43.154008 43.154008 0 0 1 40.594025-76.068082l0.073142-0.073143A425.688692 425.688692 0 1 0 180.862107 618.199454l10.751931-29.622666a43.154008 43.154008 0 0 1 81.480619 28.525531l-0.219427 0.658281-33.499213 93.402828a86.308017 86.308017 0 0 1-119.80723 48.127691l-1.243421-0.731424L23.45969 709.481153a43.154008 43.154008 0 0 1 39.131177-76.945791l0.731424 0.29257 37.302618 19.60216A511.996709 511.996709 0 0 1 593.165742 0z" p-id="7313"/>
</svg>
