<?xml version="1.0" standalone="no"?><!DOCTYPE svg PUBLIC "-//W3C//DTD SVG 1.1//EN" "http://www.w3.org/Graphics/SVG/1.1/DTD/svg11.dtd"><svg t="1741679852400" class="icon" viewBox="0 0 1024 1024" version="1.1" xmlns="http://www.w3.org/2000/svg" p-id="1488" data-darkreader-inline-fill="" xmlns:xlink="http://www.w3.org/1999/xlink" width="200" height="200"><path d="M774.4 288 384 288C384 268.8 371.2 256 352 256l-64 0C268.8 256 256 268.8 256 288L249.6 288c-51.2 0-89.6 38.4-89.6 89.6l0 332.8c0 51.2 38.4 89.6 89.6 89.6l524.8 0c51.2 0 89.6-38.4 89.6-89.6L864 377.6C864 326.4 825.6 288 774.4 288zM800 710.4c0 12.8-12.8 25.6-25.6 25.6L249.6 736c-12.8 0-25.6-12.8-25.6-25.6L224 377.6c0-12.8 12.8-25.6 25.6-25.6l524.8 0c12.8 0 25.6 12.8 25.6 25.6L800 710.4z" fill="#1296db" p-id="1489" data-darkreader-inline-fill="" style="--darkreader-inline-fill: var(--darkreader-background-1296db, #0e78af);"></path><path d="M512 384C422.4 384 352 454.4 352 544S422.4 704 512 704s160-70.4 160-160S601.6 384 512 384zM512 640c-51.2 0-96-44.8-96-96S460.8 448 512 448s96 44.8 96 96S563.2 640 512 640z" fill="#1296db" p-id="1490" data-darkreader-inline-fill="" style="--darkreader-inline-fill: var(--darkreader-background-1296db, #0e78af);"></path><path d="M736 416m-32 0a0.5 0.5 0 1 0 64 0 0.5 0.5 0 1 0-64 0Z" fill="#1296db" p-id="1491" data-darkreader-inline-fill="" style="--darkreader-inline-fill: var(--darkreader-text-1296db, #37afef);"></path></svg>