<?xml version="1.0" standalone="no"?><!DOCTYPE svg PUBLIC "-//W3C//DTD SVG 1.1//EN" "http://www.w3.org/Graphics/SVG/1.1/DTD/svg11.dtd"><svg t="1757572036343" class="icon" viewBox="0 0 1024 1024" version="1.1" xmlns="http://www.w3.org/2000/svg" p-id="6081" xmlns:xlink="http://www.w3.org/1999/xlink" width="64" height="64"><path d="M113.23855755 918.32415913c171.87993133 20.62559164 282.21309837 20.62559164 405.63663914 20.62559163 128.01617306 0 254.38229943 0 419.38703408-20.62559163 0 0 41.25118326-251.41221349 41.25118485-412.5118374 0-161.09962235-41.25118326-412.51183738-41.25118485-412.51183583-171.87993133-27.5007899-302.7974379-27.5007899-433.13742746-27.50078989-93.84644233 0-182.55023889 8.25023666-291.24710782 18.3567774-31.65340858 2.94258402-64.98436421 6.05017333-100.63913794 9.14401249 0 0-48.12638155 258.28741175-48.12637995 419.38703408 0 161.09962235 48.12638155 405.63663911 48.12637995 405.63663915z m35.1047571-786.71507399c24.62695677-2.21381349 48.05762906-4.40012665 70.5395248-6.49018694 108.22935498-10.05153847 194.47183008-18.06801892 286.24196386-18.06801735 122.43351371 0 243.02447346 0.02750035 397.02889154 22.45439381a4445.81881922 4445.81881922 0 0 1 15.79920313 114.71954192C928.22444246 326.91968876 938.26223077 427.94383802 938.26223077 505.81232173c0 77.85473353-10.0377883 178.89263295-20.30933279 261.57375654a4483.89366227 4483.89366227 0 0 1-15.63419785 113.67451098c-147.37672932 16.61047632-263.76006811 16.63797669-383.44350344 16.63797825-115.61331775 0-218.21876122 0-370.66938543-16.87173444l-1.87005427-10.43654982c-4.45512735-25.14947146-10.40904943-60.36423157-16.36296837-100.51538315-11.96284331-80.87982019-23.60942775-179.81390915-23.60942773-257.18738011 0-77.45597203 11.66033463-179.8826616 23.65067828-264.31008472a4134.70239221 4134.70239221 0 0 1 18.32927548-116.76835012z" fill="#FFFFFF" p-id="6082"></path><path d="M362.8357206 495.88453801c7.26020801-156.50699163 32.13467271-310.93767153 52.89776774-405.54038788l26.85452045 5.91266997c-20.48808826 93.31017747-45.10129486 246.20081526-52.27900024 400.90650347-7.21895746 155.40695995 3.35509569 309.87889199 51.22021911 408.26296587l-24.73695978 12.03159421c-51.13771803-105.12176564-61.1892565-265.75387559-53.95654728-421.55959547z" fill="#FFFFFF" p-id="6083"></path><path d="M532.62559164 342.89764739c168.22232695 7.30146012 334.24459061 32.31342663 435.90125758 53.18652621l-5.52765866 26.95077328c-100.47413265-20.63934181-265.02510508-45.43130388-431.55613323-52.66401153-167.20479796-7.24645782-333.77707823 3.35509569-440.01262572 51.70148481l-11.38532633-25.02571826c112.67073371-51.28897155 285.04567937-61.42301268 452.59423653-54.14905451z" fill="#FFFFFF" p-id="6084"></path><path d="M681.12985296 495.88453801c-7.27395819-156.50699163-32.1484229-310.93767153-52.91151789-405.54038788l-26.85452047 5.91266997c20.48808826 93.31017747 45.10129486 246.20081526 52.2927504 400.90650347 7.20520727 155.40695995-3.36884746 309.87889199-51.23397082 408.26296587l24.73695976 12.03159421c51.13771803-105.12176564 61.1892565-265.75387559 53.95654885-421.55959547z" fill="#FFFFFF" p-id="6085"></path><path d="M532.48808826 655.49911738c168.00232095-5.47265636 333.84582913-24.20069492 435.36499271-39.84864295l-4.18012062-27.18453105c-100.61163757 15.49669447-265.32761372 34.11472845-432.07864789 39.54613585-167.30105078 5.445156-334.5470993-2.48882178-441.41516606-38.96861887l-8.88275435 26.02949709c112.03821445 38.22609661 283.73939188 45.87131593 451.19169621 40.42615993z" fill="#FFFFFF" p-id="6086"></path><path d="M429.49763189 347.68278533a48.12638155 48.12638155 0 1 1-96.25276147 0 48.12638155 48.12638155 0 0 1 96.25276147 0z" fill="#FFFFFF" p-id="6087"></path></svg>