<?xml version="1.0" standalone="no"?><!DOCTYPE svg PUBLIC "-//W3C//DTD SVG 1.1//EN" "http://www.w3.org/Graphics/SVG/1.1/DTD/svg11.dtd"><svg t="1757474488832" class="icon" viewBox="0 0 1024 1024" version="1.1" xmlns="http://www.w3.org/2000/svg" p-id="7308" xmlns:xlink="http://www.w3.org/1999/xlink" width="64" height="64"><path d="M758.362379 350.376479l64.149356-250.107487C670.193265-6.00994 533.744636-15.129848 403.755943 14.979849l354.606436 335.39663zM15.819841 368.346299C53.969458 243.267555 130.248691 132.31867 300.636979 56.399433l213.347856 201.257978L15.819841 368.346299z m282.007166 24.579753L3.129969 463.885338c-17.819821 182.168169 42.389574 302.276962 133.628657 396.946012l161.068381-467.905298z m10.139898 250.917478l-88.979106 279.957187c152.318469 105.978935 288.757098 115.39884 418.445796 85.299143L307.966905 643.84353z m218.407806 124.778746l196.95802 198.808002c170.088291-75.929237 246.677521-186.618125 285.077136-311.956865L526.374711 768.622276z m360.546376-605.683913c91.849077 94.719048 151.748475 214.777842 133.938655 396.99601l-263.877349 75.929237 129.938694-472.925247z" fill="#FFFFFF" p-id="7309"></path></svg>