<?xml version="1.0" encoding="UTF-8"?>
<svg width="100" height="100" viewBox="0 0 24 24" version="1.1" xmlns="http://www.w3.org/2000/svg" xmlns:xlink="http://www.w3.org/1999/xlink">
    <title>Settings</title>
    <g id="Settings" stroke="none" stroke-width="1" fill="none" fill-rule="evenodd">
        <path d="M12,15 C13.6568542,15 15,13.6568542 15,12 C15,10.3431458 13.6568542,9 12,9 C10.3431458,9 9,10.3431458 9,12 C9,13.6568542 10.3431458,15 12,15 Z" stroke="#CCCCCC" stroke-width="2" stroke-linecap="round" stroke-linejoin="round"></path>
        <path d="M19.4,15 C19.2669395,15.3016501 19.2272601,15.6362161 19.287747,15.9618864 C19.3482339,16.2875566 19.5054287,16.5843201 19.74,16.81 L19.79,16.86 C19.976,17.0457 20.1235,17.2663 20.2241,17.5095 C20.3248,17.7527 20.3766,18.0139 20.3766,18.2775 C20.3766,18.5411 20.3248,18.8023 20.2241,19.0455 C20.1235,19.2887 19.976,19.5093 19.79,19.695 C19.6043,19.881 19.3837,20.0285 19.1405,20.1291 C18.8973,20.2298 18.6361,20.2816 18.3725,20.2816 C18.1089,20.2816 17.8477,20.2298 17.6045,20.1291 C17.3613,20.0285 17.1407,19.881 16.955,19.695 L16.905,19.645 C16.6793,19.4104 16.3825,19.2532 16.0569,19.1927 C15.7312,19.1322 15.3966,19.1719 15.095,19.305 C14.7994,19.4194 14.5526,19.6249 14.3864,19.8927 C14.2202,20.1605 14.1434,20.4763 14.165,20.795 L14.165,20.995 C14.165,21.5254 13.9543,22.0343 13.5792,22.4093 C13.2042,22.7843 12.6954,22.995 12.165,22.995 C11.6346,22.995 11.1258,22.7843 10.7508,22.4093 C10.3757,22.0343 10.165,21.5254 10.165,20.995 L10.165,20.915 C10.1798,20.5899 10.0917,20.2685 9.91244,19.9992 C9.73314,19.7299 9.47088,19.5272 9.165,19.42 C8.86341,19.2869 8.52881,19.2472 8.20314,19.3077 C7.87747,19.3682 7.58071,19.5254 7.355,19.76 L7.305,19.81 C7.11929,19.996 6.89871,20.1435 6.65552,20.2441 C6.41234,20.3448 6.15115,20.3966 5.8875,20.3966 C5.62385,20.3966 5.36266,20.3448 5.11947,20.2441 C4.87629,20.1435 4.65571,19.996 4.47,19.81 C4.28405,19.6243 4.13652,19.4037 4.03588,19.1605 C3.93523,18.9173 3.88343,18.6561 3.88343,18.3925 C3.88343,18.1289 3.93523,17.8677 4.03588,17.6245 C4.13652,17.3813 4.28405,17.1607 4.47,16.975 L4.52,16.925 C4.75462,16.6993 4.91185,16.4025 4.97235,16.0769 C5.03284,15.7512 4.99313,15.4166 4.86,15.115 C4.74555,14.8195 4.54011,14.5727 4.27228,14.4065 C4.00446,14.2403 3.68867,14.1635 3.37,14.185 L3.17,14.185 C2.63963,14.185 2.13076,13.9743 1.75571,13.5992 C1.38067,13.2242 1.17,12.7154 1.17,12.185 C1.17,11.6546 1.38067,11.1458 1.75571,10.7708 C2.13076,10.3957 2.63963,10.185 3.17,10.185 L3.25,10.185 C3.57507,10.1998 3.89651,10.1117 4.16577,9.93244 C4.43504,9.75314 4.63777,9.49088 4.745,9.185 C4.87813,8.88341 4.91784,8.54881 4.85735,8.22314 C4.79685,7.89747 4.63963,7.60071 4.405,7.375 L4.355,7.325 C4.16905,7.13929 4.02152,6.91871 3.92088,6.67552 C3.82023,6.43234 3.76843,6.17115 3.76843,5.9075 C3.76843,5.64385 3.82023,5.38266 3.92088,5.13947 C4.02152,4.89629 4.16905,4.67571 4.355,4.49 C4.54071,4.30405 4.76129,4.15652 5.00448,4.05588 C5.24766,3.95523 5.50885,3.90343 5.7725,3.90343 C6.03615,3.90343 6.29734,3.95523 6.54052,4.05588 C6.78371,4.15652 7.00429,4.30405 7.19,4.49 L7.24,4.54 C7.46571,4.77462 7.76247,4.93185 8.08814,4.99235 C8.41381,5.05284 8.74841,5.01313 9.05,4.88 L9.075,4.88 C9.37058,4.76555 9.61744,4.56011 9.78365,4.29228 C9.94986,4.02446 10.0267,3.70867 10.005,3.39 L10.005,3.19 C10.005,2.65963 10.2157,2.15076 10.5907,1.77571 C10.9658,1.40067 11.4746,1.19 12.005,1.19 C12.5354,1.19 13.0442,1.40067 13.4193,1.77571 C13.7943,2.15076 14.005,2.65963 14.005,3.19 L14.005,3.27 C13.9833,3.58867 14.0601,3.90446 14.2263,4.17228 C14.3925,4.44011 14.6394,4.64555 14.935,4.76 C15.2366,4.89313 15.5712,4.93284 15.8969,4.87235 C16.2225,4.81185 16.5193,4.65462 16.745,4.42 L16.795,4.37 C16.9807,4.18405 17.2013,4.03652 17.4445,3.93588 C17.6877,3.83523 17.9489,3.78343 18.2125,3.78343 C18.4761,3.78343 18.7373,3.83523 18.9805,3.93588 C19.2237,4.03652 19.4443,4.18405 19.63,4.37 C19.816,4.55571 19.9635,4.77629 20.0641,5.01947 C20.1648,5.26266 20.2166,5.52385 20.2166,5.7875 C20.2166,6.05115 20.1648,6.31234 20.0641,6.55552 C19.9635,6.79871 19.816,7.01929 19.63,7.205 L19.58,7.255 C19.3454,7.48071 19.1882,7.77747 19.1277,8.10314 C19.0672,8.42881 19.1069,8.76341 19.24,9.065 L19.24,9.09 C19.3545,9.38558 19.5599,9.63244 19.8277,9.79865 C20.0956,9.96486 20.4113,10.0417 20.73,10.02 L20.93,10.02 C21.4604,10.02 21.9692,10.2307 22.3443,10.6057 C22.7193,10.9808 22.93,11.4896 22.93,12.02 C22.93,12.5504 22.7193,13.0592 22.3443,13.4343 C21.9692,13.8093 21.4604,14.02 20.93,14.02 L20.85,14.02 C20.5313,14.0417 20.2156,14.1185 19.9477,14.2847 C19.6799,14.4509 19.4745,14.6978 19.36,14.9933 L19.4,15 Z" stroke="#CCCCCC" stroke-width="2" stroke-linecap="round" stroke-linejoin="round"></path>
    </g>
</svg>