<?xml version="1.0" encoding="UTF-8"?>
<svg width="24px" height="24px" viewBox="0 0 24 24" version="1.1" xmlns="http://www.w3.org/2000/svg">
    <g stroke="none" stroke-width="1" fill="none" fill-rule="evenodd">
        <path d="M15.5,14h-.79l-.28-.27a6.51,6.51,0,1,0-.7.7l.27.28v.79l5,4.99L20.49,19Zm-6,0A4.5,4.5,0,1,1,14,9.5,4.49,4.49,0,0,1,9.5,14Z" fill="#FFFFFF"/>
        <path d="M10,6.5C7.51,6.5,5.5,8.51,5.5,11H3.5l2,2,2-2H5.5c0-2.49,2.01-4.5,4.5-4.5s4.5,2.01,4.5,4.5-2.01,4.5-4.5,4.5c-1.41,0-2.68-.67-3.49-1.72L5.2,14.5c1.05,1.33,2.67,2.2,4.5,2.2,3.14,0,5.7-2.56,5.7-5.7S13.34,5.3,10.2,5.3c-.06,0-.11,0-.2,0Z" fill="#FFFFFF"/>
    </g>
</svg> 